<svg width="164" height="20" viewBox="0 0 164 20" fill="none" xmlns="http://www.w3.org/2000/svg">
<path opacity="0.8" d="M0.314422 3.31656C0.314422 2.75893 0.503619 2.29091 0.882013 1.91252C1.28032 1.51421 1.75829 1.31505 2.31593 1.31505H19.7021C20.2598 1.31505 20.7377 1.50425 21.1361 1.88264C21.5145 2.28095 21.7036 2.75893 21.7036 3.31656C21.7036 3.87419 21.5045 4.35216 21.1062 4.75047C20.7278 5.12887 20.2598 5.31807 19.7021 5.31807H13.0404V17.4167C12.9209 18.6116 12.2637 19.2589 11.0688 19.3585C10.5111 19.3585 10.0232 19.1792 9.60499 18.8208C9.20668 18.4424 9.00753 17.9744 9.00753 17.4167V5.31807H2.31593C1.75829 5.31807 1.29028 5.11891 0.911886 4.7206C0.513576 4.34221 0.314422 3.87419 0.314422 3.31656ZM28.8732 17.4167C28.7537 18.6116 28.0965 19.2589 26.9016 19.3585C26.344 19.3585 25.856 19.1792 25.4378 18.8208C25.0395 18.4424 24.8403 17.9744 24.8403 17.4167V3.25681C24.8603 2.69918 25.0694 2.24112 25.4677 1.88264C25.866 1.50425 26.344 1.31505 26.9016 1.31505H28.3654H32.0398H39.4185C39.538 1.31505 39.6575 1.32501 39.7769 1.34493H39.9562C41.3503 1.38476 42.4954 1.70341 43.3916 2.30087C44.2878 2.89833 44.9351 3.58542 45.3334 4.36212C45.7317 5.11891 45.9308 5.88566 45.9308 6.66236C45.9308 7.45898 45.7317 8.24564 45.3334 9.02234C44.955 9.77913 44.3077 10.4563 43.3916 11.0537C42.4954 11.6512 41.3503 11.9698 39.9562 12.0097H34.6985C34.8578 13.0054 35.1864 13.7423 35.6843 14.2203C36.1623 14.6983 36.7697 14.9372 37.5066 14.9372H43.9592C44.5168 14.9572 44.9749 15.1663 45.3334 15.5646C45.7118 15.9629 45.901 16.4409 45.901 16.9985C45.881 17.5362 45.6819 17.9943 45.3035 18.3727C44.945 18.7311 44.4969 18.9203 43.9592 18.9403H36.9689C35.4951 18.9602 34.1608 18.3826 32.9659 17.2076C31.7709 16.0326 31.044 14.6385 30.7851 13.0254C30.4266 11.233 30.2474 10.2272 30.2474 10.0082C30.2474 9.45053 30.4366 8.98251 30.815 8.60412C31.2133 8.20581 31.6913 8.00665 32.2489 8.00665H40.1354C40.5138 7.98674 40.8225 7.90708 41.0615 7.76767C41.3204 7.60835 41.5096 7.43906 41.6291 7.25982C41.7486 7.06067 41.8083 6.86151 41.8083 6.66236C41.8083 6.46321 41.7486 6.27401 41.6291 6.09477C41.5096 5.89561 41.3204 5.72633 41.0615 5.58692C40.8225 5.4276 40.5138 5.33798 40.1354 5.31807H32.0398H29.6499C29.1321 5.33798 28.8732 5.59688 28.8732 6.09477V17.4167ZM55.8786 14.3099C55.8786 13.7523 56.0678 13.2843 56.4462 12.9059C56.8445 12.5076 57.3225 12.3084 57.8801 12.3084H62.4507L61.674 10.0978C61.3554 9.28125 61.0367 8.5145 60.7181 7.79754C60.4193 7.06067 60.0708 6.3935 59.6725 5.79604C59.314 5.19857 58.9058 4.87992 58.4477 4.84009C57.9697 4.87992 57.5416 5.19857 57.1632 5.79604C56.7848 6.3935 56.4362 7.06067 56.1176 7.79754C55.8189 8.5145 55.5102 9.28125 55.1915 10.0978L52.3536 17.8648C52.1544 18.283 51.8955 18.6316 51.5769 18.9104C51.2781 19.1693 50.8201 19.2987 50.2027 19.2987C49.6252 19.2987 49.1472 19.0996 48.7688 18.7013C48.4103 18.303 48.251 17.825 48.2908 17.2674C48.3107 17.0085 48.3705 16.7695 48.4701 16.5504L51.7561 8.0664C52.6722 5.83587 53.5883 4.03352 54.5044 2.65935C55.4006 1.3051 56.7151 0.618012 58.4477 0.598096C60.1604 0.618012 61.4649 1.3051 62.3611 2.65935C63.2772 3.99369 64.1933 5.79604 65.1094 8.0664L68.3955 16.5504C68.4951 16.7695 68.5548 17.0085 68.5747 17.2674C68.6146 17.825 68.4453 18.303 68.0669 18.7013C67.7084 19.0996 67.2404 19.2987 66.6628 19.2987C66.0056 19.2987 65.5177 19.1693 65.1991 18.9104C64.9003 18.6316 64.6514 18.283 64.4522 17.8648L63.8846 16.3114H57.8801C57.3225 16.3114 56.8545 16.1123 56.4761 15.7139C56.0778 15.3356 55.8786 14.8675 55.8786 14.3099ZM81.0916 0.508477C82.1272 0.508477 83.1429 0.62797 84.1387 0.866955C85.1544 1.10594 86.1203 1.46442 87.0364 1.94239C87.9525 2.40045 88.7591 3.01783 89.4561 3.79453C90.1731 4.57123 90.5614 5.4973 90.6212 6.57274V7.82742V17.357C90.5017 18.5519 89.8445 19.1992 88.6495 19.2987C88.0919 19.2987 87.604 19.1195 87.1857 18.761C86.7874 18.3826 86.5883 17.9146 86.5883 17.357V7.49881C86.5485 6.88143 86.3095 6.37359 85.8713 5.97528C85.4531 5.55705 84.9751 5.22845 84.4374 4.98946C83.9196 4.75047 83.3719 4.57123 82.7944 4.45174C82.2367 4.33225 81.6692 4.2725 81.0916 4.2725C80.5141 4.2725 79.9365 4.33225 79.359 4.45174C78.8013 4.57123 78.2537 4.75047 77.7159 4.98946C77.1981 5.22845 76.7202 5.55705 76.282 5.97528C75.8638 6.37359 75.6348 6.88143 75.5949 7.49881V17.357C75.4954 18.5519 74.8481 19.1992 73.6532 19.2987C73.0955 19.2987 72.6076 19.1195 72.1894 18.761C71.7911 18.3826 71.5919 17.9146 71.5919 17.357V7.82742V6.57274C71.6517 5.4973 72.0301 4.57123 72.7271 3.79453C73.4241 3.01783 74.2307 2.40045 75.1468 1.94239C76.0629 1.46442 77.0189 1.10594 78.0147 0.866955C79.0304 0.62797 80.056 0.508477 81.0916 0.508477ZM113.713 3.31656C113.713 3.87419 113.514 4.34221 113.116 4.7206C112.737 5.11891 112.269 5.31807 111.712 5.31807H99.7624C99.384 5.33798 99.0653 5.4276 98.8064 5.58692C98.5674 5.72633 98.3882 5.89561 98.2687 6.09477C98.1492 6.27401 98.0895 6.46321 98.0895 6.66236C98.0895 6.86151 98.1492 7.06067 98.2687 7.25982C98.3882 7.43906 98.5674 7.60835 98.8064 7.76767C99.0653 7.90708 99.384 7.98674 99.7624 8.00665H108.246C109.64 8.04649 110.786 8.37509 111.682 8.99247C112.598 9.58994 113.245 10.287 113.624 11.0836C114.022 11.8603 114.221 12.6569 114.221 13.4735C114.221 14.2701 114.022 15.0667 113.624 15.8633C113.225 16.64 112.578 17.3371 111.682 17.9544C110.786 18.5519 109.64 18.8506 108.246 18.8506H108.067C107.948 18.8705 107.828 18.8805 107.709 18.8805H96.4166C95.8589 18.8805 95.381 18.6913 94.9827 18.3129C94.6043 17.9146 94.4151 17.4366 94.4151 16.879C94.4151 16.3214 94.6142 15.8534 95.0125 15.475C95.3909 15.0767 95.8589 14.8775 96.4166 14.8775H108.426C108.804 14.8974 109.113 14.8277 109.352 14.6684C109.611 14.5091 109.8 14.3298 109.919 14.1307C110.039 13.9116 110.099 13.6925 110.099 13.4735C110.099 13.334 110.039 13.1448 109.919 12.9059C109.8 12.647 109.611 12.4378 109.352 12.2785C109.113 12.1192 108.804 12.0296 108.426 12.0097H99.9416C98.5475 11.9698 97.3924 11.6512 96.4763 11.0537C95.5801 10.4563 94.9329 9.77913 94.5346 9.02234C94.1562 8.24564 93.967 7.45898 93.967 6.66236C93.967 5.88566 94.1661 5.11891 94.5644 4.36212C94.9627 3.58542 95.61 2.89833 96.5062 2.30087C97.4024 1.70341 98.5475 1.38476 99.9416 1.34493H100.121C100.24 1.32501 100.36 1.31505 100.479 1.31505H111.712C112.269 1.31505 112.737 1.51421 113.116 1.91252C113.514 2.29091 113.713 2.75893 113.713 3.31656ZM121.6 17.357C121.48 18.5519 120.823 19.1992 119.628 19.2987C119.07 19.2987 118.583 19.1195 118.164 18.761C117.766 18.3826 117.567 17.9146 117.567 17.357V3.25681C117.587 2.69918 117.796 2.24112 118.194 1.88264C118.592 1.50425 119.07 1.31505 119.628 1.31505H132.175C133.927 1.3748 135.252 1.76315 136.148 2.48011C137.044 3.17715 137.691 3.97377 138.09 4.86997C138.488 5.76616 138.687 6.67232 138.687 7.58843C138.687 8.54437 138.488 9.47044 138.09 10.3666C137.711 11.2628 137.064 12.0694 136.148 12.7864C135.252 13.4834 134.107 13.822 132.713 13.8021H125.184C124.627 13.8021 124.159 13.6029 123.78 13.2046C123.382 12.8262 123.183 12.3582 123.183 11.8006C123.183 11.2429 123.372 10.7749 123.751 10.3965C124.149 9.9982 124.627 9.79905 125.184 9.79905H132.892C133.27 9.79905 133.579 9.67956 133.818 9.44057C134.077 9.18167 134.266 8.89289 134.385 8.57425C134.505 8.23568 134.565 7.89712 134.565 7.55856C134.565 7.23991 134.505 6.92126 134.385 6.60261C134.266 6.26405 134.077 5.97528 133.818 5.73629C133.579 5.47739 133.27 5.33798 132.892 5.31807H122.376C121.859 5.33798 121.6 5.59688 121.6 6.09477V17.357ZM157.896 1.31505C158.911 1.33497 159.818 1.65362 160.614 2.271C161.411 2.88838 162.048 3.62525 162.526 4.48161C163.024 5.33798 163.392 6.24413 163.631 7.20008C163.87 8.15602 163.99 9.13188 163.99 10.1277C163.99 11.4421 163.781 12.7366 163.362 14.0112C162.964 15.2658 162.297 16.3811 161.361 17.357C160.445 18.3328 159.29 18.8606 157.896 18.9403H147.47C146.076 18.8805 144.911 18.3627 143.975 17.3868C143.039 16.411 142.372 15.2858 141.973 14.0112C141.595 12.7366 141.406 11.4421 141.406 10.1277C141.406 8.81323 141.605 7.52868 142.003 6.27401C142.401 4.99942 143.059 3.87419 143.975 2.89833C144.911 1.90256 146.076 1.3748 147.47 1.31505H148.037H157.328H157.896ZM156.88 14.9372C157.637 14.8974 158.264 14.6186 158.762 14.1008C159.28 13.5631 159.648 12.9457 159.867 12.2487C160.086 11.5516 160.196 10.8446 160.196 10.1277C160.196 9.4107 160.076 8.71365 159.837 8.03653C159.618 7.33949 159.26 6.72211 158.762 6.18439C158.264 5.64667 157.637 5.3579 156.88 5.31807H148.396C147.639 5.3579 147.012 5.64667 146.514 6.18439C146.016 6.72211 145.648 7.33949 145.409 8.03653C145.19 8.71365 145.08 9.4107 145.08 10.1277C145.08 10.8446 145.19 11.5516 145.409 12.2487C145.628 12.9457 145.986 13.5631 146.484 14.1008C147.002 14.6186 147.639 14.8974 148.396 14.9372H156.88Z" fill="white"/>
</svg>
