<svg width="20" height="20" viewBox="0 0 20 20" xmlns="http://www.w3.org/2000/svg">
<g clip-path="url(#clip0_320_7274)">
<path d="M10 3C10.4548 3 10.8235 3.36871 10.8235 3.82353L10.8235 9.17647H16.1765C16.6313 9.17647 17 9.54518 17 10C17 10.4548 16.6313 10.8235 16.1765 10.8235H10.8235L10.8235 16.1765C10.8235 16.6314 10.4548 17.0001 10 17.0001C9.54518 17.0001 9.17647 16.6314 9.17647 16.1765L9.17565 10.8235H3.82353C3.36871 10.8235 3 10.4548 3 10C3 9.54518 3.36871 9.17647 3.82353 9.17647H9.17565L9.17647 3.82353C9.17647 3.36871 9.54518 3 10 3Z" />
</g>
<defs>
<clipPath id="clip0_320_7274">
<rect width="20" height="20" fill="white"/>
</clipPath>
</defs>
</svg>
