<svg viewBox="0 0 24 24" xmlns="http://www.w3.org/2000/svg">
<g clip-path="url(#clip0_317_6223)">
<path fill-rule="evenodd" clip-rule="evenodd" d="M11.8288 16.063C11.3112 16.7098 11.4161 17.6538 12.063 18.1713C12.7099 18.6888 13.6538 18.5839 14.1714 17.937L18.1714 12.937C18.6096 12.3892 18.6096 11.6108 18.1714 11.063L14.1714 6.06295C13.6539 5.41606 12.7099 5.31118 12.063 5.82869C11.4161 6.34621 11.3112 7.29014 11.8288 7.93704L15.0791 12L11.8288 16.063ZM5.82876 16.063C5.31124 16.7098 5.41612 17.6538 6.06302 18.1713C6.70991 18.6888 7.65385 18.5839 8.17136 17.937L12.1714 12.937C12.6096 12.3892 12.6096 11.6108 12.1714 11.063L8.17136 6.06295C7.65385 5.41606 6.70991 5.31118 6.06302 5.82869C5.41613 6.34621 5.31124 7.29014 5.82876 7.93704L9.07912 12L5.82876 16.063Z" />
</g>
<defs>
<clipPath id="clip0_317_6223">
<rect width="24" height="24" fill="white"/>
</clipPath>
</defs>
</svg>
