<svg viewBox="0 0 6 10" fill="none" xmlns="http://www.w3.org/2000/svg">
<path d="M5.49999 4.89169C5.49999 5.00373 5.4782 5.11266 5.43463 5.21848C5.39106 5.3243 5.3257 5.42078 5.23856 5.50792L1.54116 9.20532C1.37932 9.36716 1.17391 9.44497 0.924926 9.43874C0.675943 9.43252 0.464307 9.34848 0.290019 9.18665C0.103282 8.99991 0.0192502 8.79139 0.0379239 8.56108C0.0565976 8.33077 0.146853 8.12847 0.308692 7.95418L3.37118 4.89169L0.308692 1.8292C0.146853 1.65491 0.0597094 1.44327 0.0472603 1.19429C0.0348111 0.945309 0.121955 0.739899 0.308692 0.57806C0.48298 0.391323 0.691504 0.307291 0.934262 0.325965C1.17702 0.344639 1.38554 0.434895 1.55983 0.596733L5.23856 4.27546C5.3257 4.3626 5.39106 4.45908 5.43463 4.5649C5.4782 4.67072 5.49999 4.77965 5.49999 4.89169Z" fill="white"/>
</svg>
