<svg viewBox="0 0 24 24" xmlns="http://www.w3.org/2000/svg">
<g clip-path="url(#clip0_312_5762)">
<path fill-rule="evenodd" clip-rule="evenodd" d="M12.1713 16.063C12.6888 16.7098 12.5839 17.6538 11.937 18.1713C11.2902 18.6888 10.3462 18.5839 9.8287 17.937L5.8287 12.937C5.39043 12.3892 5.39043 11.6108 5.8287 11.063L9.8287 6.06295C10.3462 5.41606 11.2901 5.31118 11.937 5.82869C12.5839 6.34621 12.6888 7.29014 12.1713 7.93704L8.92094 12L12.1713 16.063ZM18.1713 16.063C18.6888 16.7098 18.5839 17.6538 17.937 18.1713C17.2902 18.6888 16.3462 18.5839 15.8287 17.937L11.8287 12.937C11.3904 12.3892 11.3904 11.6108 11.8287 11.063L15.8287 6.06295C16.3462 5.41606 17.2901 5.31118 17.937 5.82869C18.5839 6.34621 18.6888 7.29014 18.1713 7.93704L14.9209 12L18.1713 16.063Z" />
</g>
<defs>
<clipPath id="clip0_312_5762">
<rect width="24" height="24" fill="white"/>
</clipPath>
</defs>
</svg>
