<svg viewBox="0 0 24 24" xmlns="http://www.w3.org/2000/svg">
<g clip-path="url(#clip0_320_7421)">
<path fill-rule="evenodd" clip-rule="evenodd" d="M9.519 24C7.5135 24 6 22.3605 6 20.5875V5.997C6 2.451 7.881 0 11.547 0H12.552C16.5675 0 18 2.34 18 5.997V16.5075H16.569V11.2522V5.997C16.569 3.621 15.6135 1.5 12.5505 1.5H11.523C8.808 1.5 7.5 3.477 7.5 5.997V20.5875C7.5 21.6945 8.172 22.4985 9.5175 22.4985H11.5245C12.8025 22.4985 13.593 21.7665 13.593 20.5875V8.634C13.593 7.8375 13.4715 7.56 11.9145 7.4865C10.326 7.5645 10.5 7.893 10.5 8.634V15.015H8.9985V8.634C8.9985 6.9525 9.9525 6.09 11.9145 5.997C13.8735 6.087 15 6.924 15 8.634V20.5875C15 22.4205 13.449 24 11.523 24H9.519Z" />
</g>
<defs>
<clipPath id="clip0_320_7421">
<rect width="24" height="24" fill="white"/>
</clipPath>
</defs>
</svg>
