<svg viewBox="0 0 20 20" xmlns="http://www.w3.org/2000/svg">
<g clip-path="url(#clip0_320_7402)">
<path d="M10 11.187L6.43885 14.7482C6.27098 14.9161 6.07314 15 5.84532 15C5.61751 15 5.41966 14.9161 5.2518 14.7482C5.08393 14.5803 5 14.3825 5 14.1547C5 13.9269 5.08393 13.729 5.2518 13.5612L8.81295 10L5.2518 6.43885C5.08393 6.27098 5 6.07314 5 5.84532C5 5.61751 5.08393 5.41966 5.2518 5.2518C5.41966 5.08393 5.61751 5 5.84532 5C6.07314 5 6.27098 5.08393 6.43885 5.2518L10 8.81295L13.5612 5.2518C13.729 5.08393 13.9269 5 14.1547 5C14.3825 5 14.5803 5.08393 14.7482 5.2518C14.9161 5.41966 15 5.61751 15 5.84532C15 6.07314 14.9161 6.27098 14.7482 6.43885L11.187 10L14.7482 13.5612C14.9161 13.729 15 13.9269 15 14.1547C15 14.3825 14.9161 14.5803 14.7482 14.7482C14.5803 14.9161 14.3825 15 14.1547 15C13.9269 15 13.729 14.9161 13.5612 14.7482L10 11.187Z" />
</g>
<defs>
<clipPath id="clip0_320_7402">
<rect width="20" height="20" fill="white"/>
</clipPath>
</defs>
</svg>
