<svg viewBox="0 0 20 20" xmlns="http://www.w3.org/2000/svg">
<g clip-path="url(#clip0_309_5406)">
<path d="M8.95834 15.5832C8.68057 15.5832 8.44793 15.4895 8.26043 15.302C8.07293 15.1145 7.97918 14.8818 7.97918 14.6041C7.97918 14.3263 8.07293 14.0936 8.26043 13.9061C8.44793 13.7186 8.68057 13.6249 8.95834 13.6249H11.0417C11.3195 13.6249 11.5521 13.7186 11.7396 13.9061C11.9271 14.0936 12.0208 14.3263 12.0208 14.6041C12.0208 14.8818 11.9271 15.1145 11.7396 15.302C11.5521 15.4895 11.3195 15.5832 11.0417 15.5832H8.95834ZM3.12501 6.37489C2.84723 6.37489 2.61459 6.28114 2.42709 6.09364C2.23959 5.90614 2.14584 5.6735 2.14584 5.39572C2.14584 5.11794 2.23959 4.88183 2.42709 4.68739C2.61459 4.49294 2.84723 4.39572 3.12501 4.39572H16.875C17.1528 4.39572 17.3854 4.49294 17.5729 4.68739C17.7604 4.88183 17.8542 5.11794 17.8542 5.39572C17.8542 5.6735 17.7604 5.90614 17.5729 6.09364C17.3854 6.28114 17.1528 6.37489 16.875 6.37489H3.12501ZM5.62501 10.9791C5.34723 10.9791 5.11459 10.8853 4.92709 10.6978C4.73959 10.5103 4.64584 10.2777 4.64584 9.99989C4.64584 9.72211 4.73959 9.48947 4.92709 9.30197C5.11459 9.11447 5.34723 9.02072 5.62501 9.02072H14.375C14.6528 9.02072 14.8854 9.11447 15.0729 9.30197C15.2604 9.48947 15.3542 9.72211 15.3542 9.99989C15.3542 10.2777 15.2604 10.5103 15.0729 10.6978C14.8854 10.8853 14.6528 10.9791 14.375 10.9791H5.62501Z" />
</g>
<defs>
<clipPath id="clip0_309_5406">
<rect width="20" height="20" fill="white"/>
</clipPath>
</defs>
</svg>
