<svg viewBox="0 0 24 24" xmlns="http://www.w3.org/2000/svg">
<g clip-path="url(#clip0_309_5501)">
<path fill-rule="evenodd" clip-rule="evenodd" d="M16.0567 3.52919C15.5737 3.47461 15.0826 3.49042 14.599 3.57855C13.5991 3.76074 12.6784 4.24333 11.9597 4.96203C11.241 5.68072 10.7584 6.60138 10.5762 7.60131C10.394 8.60123 10.5209 9.63294 10.9399 10.5589C11.1115 10.9381 11.0303 11.384 10.736 11.6783L3.82599 18.5883C3.6157 18.7986 3.49756 19.0838 3.49756 19.3812C3.49756 19.6786 3.6157 19.9638 3.82599 20.1741C4.03627 20.3844 4.32149 20.5025 4.61888 20.5025C4.91627 20.5025 5.20148 20.3844 5.41177 20.1741L12.3218 13.2641C12.6161 12.9698 13.0619 12.8885 13.4412 13.0601C14.3671 13.4792 15.3988 13.606 16.3988 13.4239C17.3987 13.2417 18.3194 12.7591 19.038 12.0404C19.7567 11.3217 20.2393 10.401 20.4215 9.4011C20.5097 8.91745 20.5255 8.42636 20.4709 7.9434L17.8989 10.5154C17.5251 10.8818 17.0224 11.0871 16.4989 11.0871C15.9754 11.0871 15.4727 10.8818 15.0989 10.5153L15.0917 10.5083L13.4847 8.90124C13.1182 8.52738 12.913 8.02471 12.913 7.5012C12.913 6.97769 13.1183 6.47506 13.4847 6.1012L13.4917 6.09407L13.5018 6.08411L16.0567 3.52919ZM14.2405 1.61094C15.6404 1.35588 17.0848 1.5335 18.3812 2.12014C18.6802 2.25548 18.8938 2.52899 18.9527 2.85195C19.0115 3.17491 18.9081 3.50618 18.676 3.73831L14.916 7.49829L14.9131 7.5012L16.4989 9.08699L20.2618 5.32409C20.4939 5.09197 20.8252 4.98855 21.1481 5.0474C21.4711 5.10624 21.7446 5.31985 21.8799 5.61893C22.4666 6.91532 22.6442 8.3597 22.3891 9.7596C22.1341 11.1595 21.4584 12.4484 20.4523 13.4546C19.4461 14.4608 18.1572 15.1364 16.7573 15.3915C15.5898 15.6042 14.3914 15.516 13.2737 15.1406L6.82599 21.5883C6.24062 22.1737 5.4467 22.5025 4.61888 22.5025C3.79105 22.5025 2.99713 22.1737 2.41177 21.5883C1.82641 21.0029 1.49756 20.209 1.49756 19.3812C1.49756 18.5534 1.82641 17.7595 2.41177 17.1741L8.85953 10.7263C8.48412 9.60865 8.39591 8.41025 8.60862 7.24281C8.86368 5.84291 9.53932 4.55399 10.5455 3.54782C11.5517 2.54164 12.8406 1.866 14.2405 1.61094Z" />
</g>
<defs>
<clipPath id="clip0_309_5501">
<rect width="24" height="24" fill="white"/>
</clipPath>
</defs>
</svg>
