<svg width="24" height="24" viewBox="0 0 24 24" xmlns="http://www.w3.org/2000/svg">
<g clip-path="url(#clip0_312_5785)">
<path d="M12 23C13.1033 23 14.006 22.0769 14.006 20.9487H9.99398C9.99398 22.0769 10.8967 23 12 23ZM18.0181 16.8462V11.7179C18.0181 8.56923 16.3832 5.93333 13.5045 5.2359V4.53846C13.5045 3.68718 12.8325 3 12 3C11.1675 3 10.4955 3.68718 10.4955 4.53846V5.2359C7.62688 5.93333 5.98195 8.55897 5.98195 11.7179V16.8462L3.97593 18.8974V19.9231H20.0241V18.8974L18.0181 16.8462ZM16.012 17.8718H7.98796V11.7179C7.98796 9.17436 9.50251 7.10256 12 7.10256C14.4975 7.10256 16.012 9.17436 16.012 11.7179V17.8718ZM7.5667 4.62051L6.1324 3.15385C3.72518 5.03077 2.14042 7.92308 2 11.2051H4.00602C4.07707 9.90442 4.43413 8.63686 5.05062 7.49681C5.66711 6.35676 6.52715 5.37359 7.5667 4.62051ZM19.994 11.2051H22C21.8495 7.92308 20.2648 5.03077 17.8676 3.15385L16.4433 4.62051C17.4784 5.3773 18.3346 6.36155 18.9491 7.50099C19.5635 8.64043 19.9205 9.90612 19.994 11.2051Z" />
</g>
<defs>
<clipPath id="clip0_312_5785">
<rect width="24" height="24" />
</clipPath>
</defs>
</svg>
