<svg width="24" height="24" viewBox="0 0 24 24" xmlns="http://www.w3.org/2000/svg">
<g clip-path="url(#clip0_309_5505)">
<path d="M12.293 2.29279C12.4805 2.10532 12.7348 2 13 2C13.2652 2 13.5195 2.10532 13.707 2.29279L16.707 5.29279C16.8945 5.48031 16.9998 5.73462 16.9998 5.99979C16.9998 6.26495 16.8945 6.51926 16.707 6.70679L13.707 9.70679C13.5184 9.88894 13.2658 9.98974 13.0036 9.98746C12.7414 9.98518 12.4906 9.88001 12.3052 9.6946C12.1198 9.5092 12.0146 9.25838 12.0123 8.99619C12.01 8.73399 12.1108 8.48139 12.293 8.29279L13.586 6.99979H12C8.452 6.99979 5.5 9.95179 5.5 13.4998C5.5 17.0478 8.452 19.9998 12 19.9998C15.548 19.9998 18.5 17.0478 18.5 13.4998C18.5 13.2346 18.6054 12.9802 18.7929 12.7927C18.9804 12.6051 19.2348 12.4998 19.5 12.4998C19.7652 12.4998 20.0196 12.6051 20.2071 12.7927C20.3946 12.9802 20.5 13.2346 20.5 13.4998C20.5 18.1518 16.652 21.9998 12 21.9998C7.348 21.9998 3.5 18.1518 3.5 13.4998C3.5 8.84779 7.348 4.99979 12 4.99979H13.586L12.293 3.70679C12.1055 3.51926 12.0002 3.26495 12.0002 2.99979C12.0002 2.73462 12.1055 2.48031 12.293 2.29279Z" />
</g>
<defs>
<clipPath id="clip0_309_5505">
<rect width="24" height="24" fill="white"/>
</clipPath>
</defs>
</svg>
