<svg width="19" height="19" viewBox="0 0 19 19" fill="none" xmlns="http://www.w3.org/2000/svg">
<g clip-path="url(#clip0_924_12)">
<path d="M9.5 19C14.7467 19 19 14.7467 19 9.5C19 4.25329 14.7467 0 9.5 0C4.25329 0 0 4.25329 0 9.5C0 14.7467 4.25329 19 9.5 19Z" fill="#F0F0F0"/>
<path d="M-0.91498 12.3334H23.165C23.8585 10.284 24.3963 8.04394 24.75 5.66669H-2.5C-2.14628 8.04394 -1.60846 10.284 -0.91498 12.3334Z" fill="#0052B4"/>
<path d="M-0.91498 19H23.165C23.8585 16.9507 24.3963 14.7106 24.75 12.3333H-2.5C-2.14628 14.7106 -1.60846 16.9507 -0.91498 19Z" fill="#D80027"/>
<path d="M-0.91498 5.66667H23.165C23.8585 3.61734 24.3963 1.37725 24.75 -1H-2.5C-2.14628 1.37725 -1.60846 3.61734 -0.91498 5.66667Z" fill="white"/>
</g>
<defs>
<clipPath id="clip0_924_12">
<rect width="19" height="19" rx="9.5" fill="white"/>
</clipPath>
</defs>
</svg>
