<svg viewBox="0 0 20 20" xmlns="http://www.w3.org/2000/svg">
<g clip-path="url(#clip0_312_5770)">
<path d="M15.8542 17.3541L10.9584 12.4791C10.5556 12.7986 10.0799 13.0485 9.53129 13.2291C8.98268 13.4097 8.38893 13.4999 7.75004 13.4999C6.15282 13.4999 4.79865 12.9444 3.68754 11.8333C2.57643 10.7222 2.02087 9.38188 2.02087 7.81244C2.02087 6.24299 2.57643 4.90272 3.68754 3.79161C4.79865 2.68049 6.14587 2.12494 7.72921 2.12494C9.29865 2.12494 10.6355 2.68049 11.7396 3.79161C12.8438 4.90272 13.3959 6.24299 13.3959 7.81244C13.3959 8.43744 13.3091 9.0173 13.1355 9.55202C12.9618 10.0867 12.7014 10.5902 12.3542 11.0624L17.2917 15.9583C17.4862 16.1527 17.5834 16.3854 17.5834 16.6562C17.5834 16.927 17.4792 17.1597 17.2709 17.3541C17.0764 17.5624 16.8403 17.6666 16.5625 17.6666C16.2848 17.6666 16.0487 17.5624 15.8542 17.3541ZM7.72921 11.5416C8.77087 11.5416 9.64935 11.177 10.3646 10.4479C11.0799 9.71869 11.4375 8.84022 11.4375 7.81244C11.4375 6.77077 11.0799 5.88883 10.3646 5.16661C9.64935 4.44438 8.77087 4.08327 7.72921 4.08327C6.68754 4.08327 5.80212 4.44438 5.07296 5.16661C4.34379 5.88883 3.97921 6.77077 3.97921 7.81244C3.97921 8.84022 4.34379 9.71869 5.07296 10.4479C5.80212 11.177 6.68754 11.5416 7.72921 11.5416Z" />
</g>
<defs>
<clipPath id="clip0_312_5770">
<rect width="20" height="20" fill="white"/>
</clipPath>
</defs>
</svg>
