<svg viewBox="0 0 24 24" xmlns="http://www.w3.org/2000/svg">
<g clip-path="url(#clip0_312_6076)">
<path d="M21.675 8.998C21.1479 7.73381 20.3838 6.58525 19.425 5.616C18.4685 4.64441 17.3351 3.8701 16.0875 3.336C14.7914 2.78025 13.418 2.5 12 2.5C10.582 2.5 9.20859 2.78025 7.9125 3.336C6.66494 3.8701 5.5315 4.64441 4.575 5.616C3.61619 6.58525 2.85207 7.73381 2.325 8.998C1.77656 10.3114 1.5 11.7031 1.5 13.14C1.5 16.2916 2.86641 19.2604 5.24766 21.2886L5.2875 21.3219C5.42344 21.4359 5.59453 21.5 5.77031 21.5H18.232C18.4078 21.5 18.5789 21.4359 18.7148 21.3219L18.7547 21.2886C21.1336 19.2604 22.5 16.2916 22.5 13.14C22.5 11.7031 22.2211 10.3114 21.675 8.998ZM17.8453 19.695H6.15469C5.24905 18.8675 4.52524 17.8564 4.03021 16.7271C3.53518 15.5978 3.28001 14.3757 3.28125 13.14C3.28125 10.7793 4.18828 8.561 5.83594 6.89375C7.48359 5.22412 9.67266 4.305 12 4.305C14.3297 4.305 16.5188 5.22412 18.1641 6.89375C19.8117 8.56337 20.7188 10.7816 20.7188 13.14C20.7188 15.648 19.6758 18.0206 17.8453 19.695ZM14.6133 9.85063C14.578 9.81527 14.5305 9.79543 14.4809 9.79543C14.4313 9.79543 14.3837 9.81527 14.3484 9.85063L12.368 11.8575C11.9297 11.7387 11.4445 11.8527 11.1 12.2019C10.978 12.3253 10.8812 12.4719 10.8151 12.6333C10.749 12.7947 10.715 12.9677 10.715 13.1424C10.715 13.3171 10.749 13.4901 10.8151 13.6515C10.8812 13.8129 10.978 13.9595 11.1 14.0829C11.2218 14.2065 11.3665 14.3046 11.5257 14.3716C11.685 14.4385 11.8557 14.473 12.0281 14.473C12.2005 14.473 12.3713 14.4385 12.5305 14.3716C12.6898 14.3046 12.8344 14.2065 12.9562 14.0829C13.1195 13.918 13.2369 13.7123 13.2965 13.4867C13.3562 13.2611 13.3561 13.0235 13.2961 12.798L15.2766 10.7911C15.3492 10.7175 15.3492 10.5964 15.2766 10.5227L14.6133 9.85063ZM11.4844 7.44H12.5156C12.6187 7.44 12.7031 7.3545 12.7031 7.25V5.35C12.7031 5.2455 12.6187 5.16 12.5156 5.16H11.4844C11.3813 5.16 11.2969 5.2455 11.2969 5.35V7.25C11.2969 7.3545 11.3813 7.44 11.4844 7.44ZM17.5781 12.6175V13.6625C17.5781 13.767 17.6625 13.8525 17.7656 13.8525H19.6406C19.7437 13.8525 19.8281 13.767 19.8281 13.6625V12.6175C19.8281 12.513 19.7437 12.4275 19.6406 12.4275H17.7656C17.6625 12.4275 17.5781 12.513 17.5781 12.6175ZM17.8758 7.934L17.1469 7.19538C17.1116 7.16002 17.064 7.14018 17.0145 7.14018C16.9649 7.14018 16.9173 7.16002 16.882 7.19538L15.5555 8.53962C15.5206 8.57533 15.501 8.62356 15.501 8.67381C15.501 8.72407 15.5206 8.77229 15.5555 8.808L16.2844 9.54663C16.357 9.62025 16.4766 9.62025 16.5492 9.54663L17.8758 8.20237C17.9484 8.12875 17.9484 8.00762 17.8758 7.934ZM7.12734 7.19538C7.0921 7.16002 7.04452 7.14018 6.99492 7.14018C6.94533 7.14018 6.89774 7.16002 6.8625 7.19538L6.13359 7.934C6.0987 7.96971 6.07912 8.01793 6.07913 8.06819C6.07912 8.11844 6.0987 8.16667 6.13359 8.20237L7.46016 9.54663C7.53281 9.62025 7.65234 9.62025 7.725 9.54663L8.45391 8.808C8.52656 8.73438 8.52656 8.61325 8.45391 8.53962L7.12734 7.19538ZM6.14062 12.4275H4.26562C4.1625 12.4275 4.07812 12.513 4.07812 12.6175V13.6625C4.07812 13.767 4.1625 13.8525 4.26562 13.8525H6.14062C6.24375 13.8525 6.32812 13.767 6.32812 13.6625V12.6175C6.32812 12.513 6.24375 12.4275 6.14062 12.4275Z" />
</g>
<defs>
<clipPath id="clip0_312_6076">
<rect width="24" height="24" />
</clipPath>
</defs>
</svg>
