<svg viewBox="0 0 24 24" xmlns="http://www.w3.org/2000/svg">
<g clip-path="url(#clip0_309_5509)">
<path fill-rule="evenodd" clip-rule="evenodd" d="M9.57559 4.47544C9.57559 4.03361 9.93376 3.67544 10.3756 3.67544H13.5925C14.0343 3.67544 14.3925 4.03361 14.3925 4.47544V6.27192C14.3925 6.32283 14.3972 6.37263 14.4063 6.4209H9.56174C9.57083 6.37263 9.57559 6.32283 9.57559 6.27192V4.47544ZM7.98943 6.4209C7.98034 6.37263 7.97559 6.32283 7.97559 6.27192V4.47544C7.97559 3.14996 9.0501 2.07544 10.3756 2.07544H13.5925C14.9179 2.07544 15.9925 3.14996 15.9925 4.47544V6.27192C15.9925 6.32283 15.9877 6.37263 15.9786 6.4209H19.0992V6.42212H20.9641C21.4059 6.42212 21.7641 6.78029 21.7641 7.22212C21.7641 7.66395 21.4059 8.02212 20.9641 8.02212H19.0992V18.7468C19.0992 20.0722 18.0247 21.1468 16.6992 21.1468H7.2689C5.94342 21.1468 4.8689 20.0722 4.8689 18.7468V8.02212H3.00386C2.56203 8.02212 2.20386 7.66395 2.20386 7.22212C2.20386 6.78029 2.56203 6.42212 3.00386 6.42212H4.8689V6.4209H7.98943ZM6.4689 8.02212L17.4992 8.02212V18.7468C17.4992 19.1886 17.141 19.5468 16.6992 19.5468H7.2689C6.82707 19.5468 6.4689 19.1886 6.4689 18.7468V8.02212Z" />
</g>
<defs>
<clipPath id="clip0_309_5509">
<rect width="24" height="24" fill="white"/>
</clipPath>
</defs>
</svg>
