<svg viewBox="0 0 48 66" fill="none" xmlns="http://www.w3.org/2000/svg">
<g clip-path="url(#clip0_312_6285)">
<path d="M6.9956 60.8781C5.99728 60.8781 5.09788 59.9296 5.09788 58.4901C5.09788 57.0506 5.99728 56.1002 6.9956 56.1002C7.99392 56.1002 8.90821 57.0506 8.90821 58.4901C8.90821 59.9296 7.992 60.8781 6.9956 60.8781ZM6.9956 54C5.00087 54 3.45022 55.6269 3.08635 57.6264H2.08988V54.0769H0V62.8955H2.08988V59.5432H3.08635C3.45955 61.3731 5.00087 63 6.9956 63C9.18255 63 11 61.0852 11 58.4941C11 55.9029 9.18255 54.0039 6.9956 54.0039" fill="white"/>
<path d="M14.8746 58.5045C14.8746 57.0604 15.7554 56.1069 16.917 56.1069C18.0786 56.1069 18.9612 57.0604 18.9612 58.5045C18.9612 59.9486 18.0659 60.9001 16.917 60.9001C15.7682 60.9001 14.8746 59.9486 14.8746 58.5045ZM17.1851 54C16.3336 54.0001 15.5117 54.3386 14.8746 54.9516L14.5099 54.0851H13V66H15.0442V62.1523C15.6344 62.716 16.3951 63.0244 17.1814 63.0188C19.2239 63.0188 21 61.0979 21 58.4985C21 55.8991 19.2202 54 17.1851 54Z" fill="white"/>
<path d="M26.0996 56.1011C26.5637 56.086 27.0173 56.253 27.3763 56.571C27.7353 56.8891 27.9755 57.3367 28.0525 57.8312H24.132C24.2144 57.3365 24.4581 56.89 24.819 56.5726C25.18 56.2552 25.6342 56.0879 26.0996 56.1011ZM27.6122 60.2203C27.6122 60.2203 27.1701 60.8812 26.0996 60.8812C25.029 60.8812 24.3987 60.2203 24.227 59.3562H29.9196C29.9665 59.0708 29.9934 58.7819 30 58.4921C30 55.813 28.2206 54 26.0941 54C25.0012 54.0151 23.958 54.4954 23.1914 55.3367C22.4247 56.1778 21.9966 57.3118 22 58.4921C22 60.9838 23.8744 63 26.0941 63C27.952 63 29.2912 61.5599 29.7315 60.2203H27.6122Z" fill="white"/>
<path d="M37.7829 54V57.3244H34.2186V54H32V63H34.2186V59.4862H37.7829V63H40V54H37.7829Z" fill="white"/>
<path d="M41 56.1639H43.4464V63H45.5392V56.1639H48V54H41V56.1639Z" fill="white"/>
<path d="M42 8H6V43H42V8Z" fill="white"/>
<path fill-rule="evenodd" clip-rule="evenodd" d="M28.107 19.8589C27.6938 19.857 27.2901 19.7279 26.9472 19.4876C26.6043 19.2473 26.3375 18.9065 26.1803 18.5085C26.0229 18.1106 25.9824 17.673 26.0637 17.2511C26.145 16.8291 26.3445 16.4415 26.6369 16.1374C26.93 15.8418 27.301 15.6438 27.7026 15.5685C28.1082 15.4841 28.5288 15.5276 28.9104 15.6936C29.3552 15.8885 29.7215 16.2374 29.9475 16.6812C30.1735 17.125 30.2454 17.6365 30.1509 18.1291C30.0564 18.6218 29.8014 19.0653 29.429 19.3847C29.0565 19.7039 28.5896 19.8795 28.107 19.8817V19.8589ZM12.4495 35.5924C13.3904 36.5715 14.666 37.122 15.9963 37.123H32.0255C33.3572 37.1215 34.6338 36.5702 35.5753 35.5897C36.5169 34.6094 37.0466 33.2802 37.0479 31.8936V20.058C37.0466 20.0053 37.0272 19.955 36.9933 19.9158C36.9753 19.8974 36.9538 19.8829 36.9305 19.873C36.9071 19.8633 36.8819 19.8585 36.8567 19.8589H33.7416C33.7161 19.8574 33.6908 19.8618 33.6672 19.8717C33.6437 19.8815 33.6223 19.8965 33.6049 19.9158C33.5872 19.9345 33.5733 19.9568 33.564 19.9812C33.5546 20.0056 33.5499 20.0318 33.5502 20.058V31.8936C33.5447 32.3129 33.3822 32.7133 33.0974 33.0098C32.8126 33.3062 32.4282 33.4755 32.0255 33.4812H15.9963C15.5863 33.4803 15.1935 33.3106 14.9033 33.0089C14.7602 32.8595 14.6469 32.682 14.57 32.4867C14.493 32.2914 14.454 32.0821 14.4552 31.8709V20.058C14.4538 20.0053 14.4344 19.955 14.4005 19.9158C14.3825 19.8974 14.3612 19.8829 14.3377 19.873C14.3142 19.8633 14.2892 19.8585 14.2639 19.8589H11.1488C11.1234 19.8574 11.0981 19.8618 11.0745 19.8717C11.0509 19.8815 11.0296 19.8965 11.0122 19.9158C10.9945 19.9345 10.9806 19.9568 10.9712 19.9812C10.9618 20.0056 10.9572 20.0318 10.9575 20.058V31.8936C10.9582 33.2806 11.4869 34.6106 12.4277 35.5924H12.4495ZM18.871 16.8488C19.2561 17.1267 19.7241 17.252 20.1902 17.2018C20.6564 17.1518 21.0899 16.9297 21.4122 16.5756C21.7928 16.1602 22.0042 15.6076 22.0024 15.0336C22.0005 14.6063 21.8831 14.1883 21.6636 13.8272C21.447 13.474 21.1353 13.1949 20.7673 13.0249C20.4011 12.8594 19.9944 12.8157 19.6033 12.8997C19.2136 12.9775 18.8556 13.1758 18.5758 13.4688C18.2877 13.782 18.0972 14.1788 18.0294 14.6068C17.9529 15.0289 17.9926 15.4648 18.1441 15.8644C18.2952 16.2573 18.5513 16.597 18.882 16.843L18.871 16.8488ZM2.08221 5.69023C0 8.95641 0 13.4745 0 22.4991V27.5009C0 36.5312 0 41.0436 2.08221 44.287C2.9769 45.6888 4.12606 46.8948 5.4651 47.8377C8.58021 50 12.9195 50 21.5871 50H26.391C35.0642 50 39.3979 50 42.513 47.8377C43.8629 46.8989 45.0216 45.6924 45.9232 44.287C48 41.0436 48 36.5312 48 27.5009V22.4991C48 13.4745 48 8.95641 45.9232 5.71299C45.02 4.31059 43.8613 3.1062 42.513 2.16797C39.4198 0 35.0859 0 26.4129 0H21.609C12.9414 0 8.60207 0 5.4651 2.16797C4.12954 3.10353 2.98074 4.29965 2.08221 5.69023Z" fill="#29304D"/>
</g>
<defs>
<clipPath id="clip0_312_6285">
<rect width="48" height="66" fill="white"/>
</clipPath>
</defs>
</svg>
